<?xml version="1.0" encoding="utf-8"?>
<!-- Generator: Adobe Illustrator 23.0.1, SVG Export Plug-In . SVG Version: 6.00 Build 0)  -->
<svg version="1.1" id="Capa_1" xmlns="http://www.w3.org/2000/svg" xmlns:xlink="http://www.w3.org/1999/xlink" x="0px" y="0px"
	 viewBox="0 0 297.61 297.61" style="enable-background:new 0 0 297.61 297.61;" xml:space="preserve">
<g>
	<path d="M179.81,126.81h64.77c4.97,0,9-4.03,9-9s-4.03-9-9-9h-55.77V53.04c0-4.97-4.03-9-9-9s-9,4.03-9,9v64.77
		C170.81,122.78,174.84,126.81,179.81,126.81z"/>
	<path d="M53.04,188.81h55.77v55.77c0,4.97,4.03,9,9,9s9-4.03,9-9v-64.77c0-4.97-4.03-9-9-9H53.04c-4.97,0-9,4.03-9,9
		S48.07,188.81,53.04,188.81z"/>
	<path d="M148.81,0C66.75,0,0,66.75,0,148.81s66.75,148.81,148.81,148.81s148.81-66.75,148.81-148.81S230.86,0,148.81,0z
		 M148.81,279.61C76.68,279.61,18,220.93,18,148.81S76.68,18,148.81,18s130.81,58.68,130.81,130.81S220.93,279.61,148.81,279.61z"/>
</g>
</svg>
