<?xml version="1.0" encoding="utf-8"?>
<!-- Generator: Adobe Illustrator 21.0.2, SVG Export Plug-In . SVG Version: 6.00 Build 0)  -->
<svg version="1.1" id="Layer_1" xmlns="http://www.w3.org/2000/svg" xmlns:xlink="http://www.w3.org/1999/xlink" x="0px" y="0px"
	 viewBox="0 0 64 64" style="enable-background:new 0 0 64 64;" xml:space="preserve">
<style type="text/css">
	.st0{opacity:0.6;}
	.st1{fill:#FFFFFF;}
</style>
<g class="st0">
	<path class="st1" d="M42.7,16.1c-6.7-0.9-13.4-1.4-20.1-1.4c-6.6,0-13.4,0.5-20.1,1.4c-0.4,0.1-0.6,0.3-0.7,0.7
		c-2.5,10.2-2.5,20,0,30.2c0.1,0.3,0.4,0.6,0.7,0.7c6.7,0.9,13.4,1.4,20.1,1.4c6.6,0,13.4-0.5,20.1-1.4c0.4-0.1,0.6-0.3,0.7-0.7
		c2.5-10.2,2.5-20,0-30.2C43.4,16.5,43.1,16.2,42.7,16.1z"/>
	<path class="st1" d="M63.4,16.2c-0.3-0.2-0.6-0.1-0.9,0.1L48.4,26.4c-0.3,0.2-0.4,0.5-0.4,0.8c0.3,3.1,0.3,6.3,0,9.5
		c0,0.3,0.1,0.6,0.4,0.8l14.1,10.1c0.2,0.1,0.3,0.2,0.5,0.2c0.1,0,0.3,0,0.4-0.1c0.3-0.2,0.5-0.5,0.5-0.8V16.9
		C63.8,16.6,63.7,16.3,63.4,16.2z"/>
</g>
</svg>
