<?xml version="1.0" encoding="utf-8"?>
<!-- Generator: Adobe Illustrator 21.0.2, SVG Export Plug-In . SVG Version: 6.00 Build 0)  -->
<svg version="1.1" id="Layer_1_copy" xmlns="http://www.w3.org/2000/svg" xmlns:xlink="http://www.w3.org/1999/xlink" x="0px"
	 y="0px" viewBox="0 0 212 16" style="enable-background:new 0 0 212 16;" xml:space="preserve">
<style type="text/css">
	.st0{fill:#343434;}
</style>
<g>
	<path class="st0" d="M4.4,2.6H1.3v10h2.8c1.7,0,3-0.4,4-1.3c0.9-0.9,1.4-2.1,1.4-3.8c0-1.6-0.4-2.8-1.3-3.6S6,2.6,4.4,2.6z
		 M4.1,11.2H2.9V3.9h1.4c2.2,0,3.4,1.2,3.4,3.6C7.7,10,6.5,11.2,4.1,11.2z"/>
	<path class="st0" d="M16.2,2.4c-1.5,0-2.7,0.4-3.5,1.3s-1.2,2.2-1.2,3.8c0,1.7,0.4,2.9,1.2,3.8c0.8,0.9,2,1.3,3.5,1.3
		c1.5,0,2.6-0.5,3.5-1.4s1.2-2.2,1.2-3.8c0-1.6-0.4-2.9-1.2-3.8S17.7,2.4,16.2,2.4z M18.4,10.4c-0.5,0.6-1.2,0.9-2.2,0.9
		c-1,0-1.7-0.3-2.2-1c-0.5-0.6-0.7-1.6-0.7-2.8c0-1.2,0.2-2.2,0.7-2.8s1.2-1,2.2-1c1,0,1.7,0.3,2.2,1s0.7,1.6,0.7,2.8
		C19.1,8.8,18.8,9.7,18.4,10.4z"/>
	<path class="st0" d="M32,8.4c-0.3,1-0.4,1.8-0.5,2.5C31.4,9.8,31.2,9,31,8.4l-1.7-5.9h-1.6l-1.6,5.8C26,8.7,26,9.1,25.9,9.6
		s-0.2,0.9-0.2,1.3c-0.1-0.7-0.3-1.5-0.5-2.5l-1.4-5.8h-1.7l1.3,5l1.3,5h1.8l1.7-5.9c0.1-0.2,0.2-0.6,0.3-1s0.2-0.8,0.2-1.1
		c0,0.2,0.1,0.5,0.2,1S29,6.3,29,6.6l1.7,6h1.8l2.6-10h-1.7L32,8.4z"/>
	<path class="st0" d="M43.9,7.8c0,0.4,0,0.9,0,1.5c0,0.7,0,1,0.1,1.1h0L39,2.6h-2v10h1.5V7.4c0-0.7,0-1.5-0.1-2.3l0-0.4h0.1l4.9,8h2
		v-10h-1.5V7.8z"/>
	<polygon class="st0" points="50,2.6 48.4,2.6 48.4,12.6 54.2,12.6 54.2,11.2 50,11.2 	"/>
	<path class="st0" d="M60.4,2.4c-1.5,0-2.7,0.4-3.5,1.3c-0.8,0.9-1.2,2.2-1.2,3.8c0,1.7,0.4,2.9,1.2,3.8c0.8,0.9,2,1.3,3.5,1.3
		c1.5,0,2.6-0.5,3.5-1.4c0.8-0.9,1.2-2.2,1.2-3.8c0-1.6-0.4-2.9-1.2-3.8S61.9,2.4,60.4,2.4z M62.6,10.4c-0.5,0.6-1.2,0.9-2.2,0.9
		c-1,0-1.7-0.3-2.2-1c-0.5-0.6-0.7-1.6-0.7-2.8c0-1.2,0.2-2.2,0.7-2.8c0.5-0.6,1.2-1,2.2-1c1,0,1.7,0.3,2.2,1
		c0.5,0.6,0.7,1.6,0.7,2.8C63.3,8.8,63,9.7,62.6,10.4z"/>
	<path class="st0" d="M69.8,2.5l-3.7,10h1.7l1-2.8h3.8l1,2.8h1.7l-3.7-10H69.8z M69.2,8.4l0.9-2.6c0.2-0.7,0.4-1.3,0.5-1.8
		c0,0.2,0.1,0.5,0.3,0.9c0.1,0.4,0.2,0.7,0.3,0.9l0.9,2.7H69.2z"/>
	<path class="st0" d="M80.3,2.6h-3.1v10H80c1.7,0,3-0.4,4-1.3c0.9-0.9,1.4-2.1,1.4-3.8c0-1.6-0.4-2.8-1.3-3.6S81.9,2.6,80.3,2.6z
		 M80,11.2h-1.2V3.9h1.4c2.2,0,3.4,1.2,3.4,3.6C83.6,10,82.4,11.2,80,11.2z"/>
	<polygon class="st0" points="87.8,12.6 93.5,12.6 93.5,11.2 89.4,11.2 89.4,8 93.2,8 93.2,6.7 89.4,6.7 89.4,4 93.5,4 93.5,2.6 
		87.8,2.6 	"/>
	<path class="st0" d="M102.6,5.5c0-1-0.3-1.7-0.9-2.2s-1.6-0.7-2.9-0.7H96v10h1.6v-4h1.6l2.4,4h1.9l-2.8-4.4
		C101.9,7.6,102.6,6.7,102.6,5.5z M98.7,7.2h-1.1V4h1.1c0.7,0,1.3,0.1,1.7,0.4s0.6,0.7,0.6,1.2c0,0.6-0.2,1-0.5,1.3
		S99.5,7.2,98.7,7.2z"/>
	<rect x="131.3" y="2.6" class="st0" width="1.6" height="10"/>
	<path class="st0" d="M139.2,4.9c-0.5,0-1,0.1-1.4,0.3s-0.7,0.5-1,0.8h-0.1l-0.2-1h-1.3v7.6h1.6V8.8c0-0.9,0.2-1.6,0.5-2
		s0.8-0.6,1.5-0.6c0.5,0,0.9,0.1,1.1,0.4c0.2,0.3,0.4,0.7,0.4,1.3v4.6h1.6V7.6C141.9,5.8,141,4.9,139.2,4.9z"/>
	<path class="st0" d="M148.4,8.8c-0.3-0.2-0.7-0.4-1.4-0.7c-0.7-0.3-1.2-0.5-1.4-0.7s-0.3-0.4-0.3-0.6c0-0.5,0.4-0.7,1.3-0.7
		c0.6,0,1.2,0.2,2.1,0.5l0.5-1.2c-0.8-0.4-1.6-0.5-2.5-0.5c-0.9,0-1.6,0.2-2.1,0.5s-0.8,0.9-0.8,1.5c0,0.5,0.2,1,0.5,1.3
		s0.9,0.7,1.8,1c0.4,0.2,0.8,0.3,1,0.5c0.3,0.1,0.4,0.3,0.5,0.4s0.2,0.3,0.2,0.5c0,0.6-0.5,0.9-1.5,0.9c-0.8,0-1.6-0.2-2.5-0.6v1.4
		c0.6,0.3,1.4,0.5,2.4,0.5c1,0,1.8-0.2,2.3-0.6c0.5-0.4,0.8-1,0.8-1.7c0-0.4-0.1-0.7-0.2-0.9C148.9,9.2,148.7,9,148.4,8.8z"/>
	<path class="st0" d="M153.3,11.1c-0.2-0.2-0.3-0.5-0.3-0.9v-4h2.2V5H153V3.3h-1l-0.5,1.6l-1.1,0.6v0.7h1v4.1c0,1.6,0.8,2.4,2.3,2.4
		c0.3,0,0.6,0,0.9-0.1c0.3-0.1,0.5-0.1,0.7-0.2v-1.2c-0.4,0.1-0.8,0.2-1.2,0.2C153.7,11.4,153.5,11.3,153.3,11.1z"/>
	<path class="st0" d="M159.8,4.9c-0.4,0-0.9,0.1-1.4,0.2s-0.9,0.3-1.3,0.5l0.5,1.1c0.3-0.2,0.7-0.3,1-0.4s0.7-0.2,1.1-0.2
		c0.5,0,0.8,0.1,1,0.4c0.2,0.2,0.3,0.6,0.3,1.1v0.4l-1.3,0c-1.2,0-2.1,0.3-2.6,0.6s-0.9,1-0.9,1.8c0,0.7,0.2,1.3,0.6,1.7
		c0.4,0.4,1,0.6,1.7,0.6c0.6,0,1.1-0.1,1.4-0.2c0.4-0.2,0.7-0.5,1.1-0.9h0.1l0.3,1.1h1.1V7.5c0-0.9-0.2-1.6-0.7-2
		C161.5,5.1,160.8,4.9,159.8,4.9z M161.1,9.6c0,0.6-0.2,1-0.5,1.4c-0.4,0.3-0.8,0.5-1.4,0.5c-0.4,0-0.7-0.1-0.9-0.3
		c-0.2-0.2-0.3-0.4-0.3-0.8c0-0.5,0.2-0.8,0.5-1c0.3-0.2,0.9-0.4,1.7-0.4l1,0V9.6z"/>
	<path class="st0" d="M168.2,4.9c-0.2,0-0.5,0-0.7,0c-1,0-1.7,0.2-2.2,0.7c-0.5,0.5-0.8,1.1-0.8,1.9c0,0.5,0.1,1,0.4,1.3
		c0.2,0.4,0.6,0.7,1,0.8c-0.3,0.2-0.6,0.4-0.7,0.6s-0.2,0.4-0.2,0.7c0,0.2,0.1,0.4,0.2,0.6c0.1,0.2,0.3,0.3,0.5,0.4
		c-0.5,0.1-0.9,0.3-1.2,0.7c-0.3,0.3-0.4,0.7-0.4,1.2c0,0.7,0.3,1.2,0.8,1.6s1.3,0.5,2.4,0.5c1.3,0,2.4-0.2,3.1-0.7s1.1-1.1,1.1-2
		c0-0.7-0.2-1.2-0.6-1.5s-1.1-0.5-1.9-0.5h-1.3c-0.4,0-0.7,0-0.9-0.1c-0.2-0.1-0.2-0.2-0.2-0.4c0-0.3,0.2-0.5,0.5-0.8
		c0.2,0,0.4,0.1,0.7,0.1c0.9,0,1.7-0.2,2.2-0.7c0.5-0.4,0.8-1.1,0.8-1.8c0-0.3,0-0.5-0.1-0.7s-0.2-0.4-0.3-0.6l1.3-0.2V5h-2.6
		C168.6,5,168.4,4.9,168.2,4.9z M166.9,12.5h1.2c0.6,0,1.1,0.1,1.3,0.2c0.2,0.1,0.4,0.4,0.4,0.7c0,0.4-0.2,0.7-0.6,1
		c-0.4,0.3-1.1,0.4-2,0.4c-0.6,0-1-0.1-1.3-0.3c-0.3-0.2-0.5-0.5-0.5-0.8c0-0.4,0.1-0.7,0.4-0.9C166.1,12.6,166.4,12.5,166.9,12.5z
		 M167.5,8.9c-0.5,0-0.8-0.1-1-0.4c-0.2-0.3-0.4-0.6-0.4-1.1c0-0.5,0.1-0.9,0.4-1.2c0.2-0.3,0.6-0.4,1.1-0.4c0.5,0,0.8,0.1,1,0.4
		c0.2,0.3,0.3,0.6,0.3,1.1C168.9,8.4,168.4,8.9,167.5,8.9z"/>
	<path class="st0" d="M175.2,5.3c-0.4,0.3-0.7,0.6-1,1.1h-0.1L174,5h-1.3v7.6h1.6v-4c0-0.7,0.2-1.2,0.6-1.6c0.4-0.4,0.9-0.6,1.6-0.6
		c0.2,0,0.5,0,0.7,0.1l0.2-1.5c-0.2,0-0.5-0.1-0.8-0.1C176.1,4.9,175.6,5,175.2,5.3z"/>
	<path class="st0" d="M181.6,4.9c-0.4,0-0.9,0.1-1.4,0.2s-0.9,0.3-1.3,0.5l0.5,1.1c0.3-0.2,0.7-0.3,1-0.4s0.7-0.2,1.1-0.2
		c0.5,0,0.8,0.1,1,0.4c0.2,0.2,0.3,0.6,0.3,1.1v0.4l-1.3,0c-1.2,0-2.1,0.3-2.6,0.6s-0.9,1-0.9,1.8c0,0.7,0.2,1.3,0.6,1.7
		c0.4,0.4,1,0.6,1.7,0.6c0.6,0,1.1-0.1,1.4-0.2c0.4-0.2,0.7-0.5,1.1-0.9h0.1l0.3,1.1h1.1V7.5c0-0.9-0.2-1.6-0.7-2
		C183.2,5.1,182.5,4.9,181.6,4.9z M182.9,9.6c0,0.6-0.2,1-0.5,1.4c-0.4,0.3-0.8,0.5-1.4,0.5c-0.4,0-0.7-0.1-0.9-0.3
		c-0.2-0.2-0.3-0.4-0.3-0.8c0-0.5,0.2-0.8,0.5-1c0.3-0.2,0.9-0.4,1.7-0.4l1,0V9.6z"/>
	<path class="st0" d="M195.2,4.9c-0.5,0-1,0.1-1.4,0.3s-0.7,0.5-0.9,0.9h-0.1c-0.4-0.8-1.1-1.2-2.3-1.2c-0.5,0-0.9,0.1-1.3,0.3
		c-0.4,0.2-0.7,0.5-0.9,0.8h-0.1l-0.2-1h-1.3v7.6h1.6V8.8c0-0.9,0.1-1.6,0.4-2c0.3-0.4,0.7-0.6,1.4-0.6c0.5,0,0.8,0.1,1,0.4
		s0.3,0.7,0.3,1.3v4.7h1.6v-4c0-0.8,0.1-1.4,0.4-1.8c0.3-0.4,0.7-0.6,1.4-0.6c0.5,0,0.8,0.1,1,0.4c0.2,0.3,0.3,0.7,0.3,1.3v4.7h1.6
		V7.6c0-0.9-0.2-1.6-0.6-2.1C196.7,5.1,196.1,4.9,195.2,4.9z"/>
	<polygon class="st0" points="199.1,2.9 200.8,2.9 200.8,7.9 201.8,7.9 201.8,2.9 203.5,2.9 203.5,2.1 199.1,2.1 	"/>
	<path class="st0" d="M209.2,2.1l-1.7,4.6h0l-1.6-4.6h-1.3v5.8h0.9V5.1c0-0.6,0-1.3-0.1-2h0l1.7,4.9h0.8l1.7-4.9h0
		c0,0.1,0,0.4,0,0.8s0,0.8,0,1.1v2.9h0.9V2.1H209.2z"/>
	<path class="st0" d="M122.3,5.9H122v1.4h0.3c0.3,0,0.6-0.1,0.7-0.2s0.2-0.3,0.2-0.5c0-0.2-0.1-0.4-0.2-0.5
		C122.9,6,122.7,5.9,122.3,5.9z"/>
	<path class="st0" d="M116.7,5.9c-0.4,0-0.7,0.1-1,0.4c-0.2,0.3-0.3,0.7-0.3,1.3s0.1,1,0.3,1.3c0.2,0.3,0.5,0.4,0.9,0.4
		c0.8,0,1.3-0.6,1.3-1.7C117.9,6.4,117.5,5.9,116.7,5.9z"/>
	<path class="st0" d="M122.8,2.6h-11c-2.8,0-5,2.3-5,5s2.3,5,5,5h11c2.8,0,5-2.3,5-5S125.6,2.6,122.8,2.6z M112.7,5.9h-1.8v1.3h1.7
		v0.9h-1.7v2h-1v-5h2.9V5.9z M118.4,9.5c-0.4,0.4-1,0.7-1.8,0.7s-1.4-0.2-1.8-0.7c-0.4-0.4-0.6-1.1-0.6-1.9s0.2-1.5,0.6-1.9
		c0.4-0.4,1-0.7,1.8-0.7c0.8,0,1.4,0.2,1.8,0.7c0.4,0.4,0.6,1.1,0.6,1.9C119,8.4,118.8,9,118.4,9.5z M123.8,10.1l-1.2-1.9H122v1.9
		h-1.1v-5h1.5c0.7,0,1.2,0.1,1.5,0.4c0.3,0.2,0.5,0.6,0.5,1.1c0,0.3-0.1,0.6-0.2,0.8c-0.2,0.2-0.4,0.4-0.7,0.5
		c0.8,1.1,1.2,1.8,1.5,2.2H123.8z"/>
</g>
</svg>
