<svg id="Layer_1" data-name="Layer 1" xmlns="http://www.w3.org/2000/svg" viewBox="0 0 22 21.97"><defs><style>.cls-1{fill:#3897f0;}</style></defs><title>reload</title><path class="cls-1" d="M14,21.56a11,11,0,0,0,7.13-6.39A10.92,10.92,0,0,0,22,11H20.66a9.62,9.62,0,0,1-2.81,6.82,9.48,9.48,0,0,1-4.14,2.44,9.59,9.59,0,0,1-4.75.17A9.39,9.39,0,0,1,4.7,18.3l1.84-1.87L1,15.43l.93,5.67,1.87-1.87A10.95,10.95,0,0,0,14,21.56Zm0,0" transform="translate(0 -0.02)"/><path class="cls-1" d="M8.29,1.72A9.6,9.6,0,0,1,13,1.56,9.46,9.46,0,0,1,17.3,3.71L15.44,5.58l5.6,1-1-5.67L18.24,2.77A11,11,0,0,0,7.95.44,11,11,0,0,0,.83,6.83,11,11,0,0,0,0,11H1.32A9.58,9.58,0,0,1,4.15,4.18,9.48,9.48,0,0,1,8.29,1.72Zm0,0" transform="translate(0 -0.02)"/></svg>