<?xml version="1.0" encoding="utf-8"?>
<!-- Generator: Adobe Illustrator 21.0.2, SVG Export Plug-In . SVG Version: 6.00 Build 0)  -->
<svg version="1.1" id="Layer_1" xmlns="http://www.w3.org/2000/svg" xmlns:xlink="http://www.w3.org/1999/xlink" x="0px" y="0px"
	 viewBox="0 0 24 24" style="enable-background:new 0 0 24 24;" xml:space="preserve">
<style type="text/css">
	.st0{fill:#3897F0;}
</style>
<path class="st0" d="M8.7,14.7c0-0.3-0.2-0.5-0.5-0.5H3.8c-0.3,0-0.5,0.2-0.5,0.5c0,0.3,0.2,0.5,0.5,0.5h4.4
	C8.5,15.3,8.7,15.1,8.7,14.7z"/>
<path class="st0" d="M7.1,12c0-0.3-0.2-0.5-0.5-0.5H2.2c-0.3,0-0.5,0.2-0.5,0.5s0.2,0.5,0.5,0.5h4.4C6.9,12.5,7.1,12.3,7.1,12z"/>
<path class="st0" d="M5.5,9.3c0-0.3-0.2-0.5-0.5-0.5H0.5C0.2,8.7,0,8.9,0,9.3c0,0.3,0.2,0.5,0.5,0.5h4.4C5.2,9.8,5.5,9.6,5.5,9.3z"
	/>
<path class="st0" d="M20.9,7.2l-5.8,4.4c-0.6,0.4-1.4,0.4-2,0L7.4,7.2C7.1,7,6.8,7,6.6,7.3C6.4,7.5,6.4,7.9,6.7,8.1l5.8,4.4
	c0.5,0.4,1.1,0.5,1.6,0.5c0.5,0,1.2-0.2,1.6-0.5l5.8-4.4c0.2-0.2,0.3-0.5,0.1-0.8C21.5,7.1,21.2,7,20.9,7.2z"/>
<path class="st0" d="M22.4,4.9H4.9c-0.3,0-0.5,0.2-0.5,0.5S4.6,6,4.9,6h17.5c0.3,0,0.5,0.2,0.5,0.5v10.9c0,0.3-0.2,0.5-0.5,0.5H4.9
	c-0.3,0-0.5,0.2-0.5,0.5c0,0.3,0.2,0.5,0.5,0.5h17.5c0.9,0,1.6-0.7,1.6-1.6V6.5C24,5.6,23.3,4.9,22.4,4.9z"/>
<path class="st0" d="M17.6,12.7c-0.2,0.2-0.2,0.5,0,0.8l3.3,3.3c0.1,0.1,0.3,0.2,0.4,0.2c0.1,0,0.3-0.1,0.4-0.2
	c0.2-0.2,0.2-0.5,0-0.8l-3.3-3.3C18.2,12.5,17.8,12.5,17.6,12.7z"/>
</svg>
