<?xml version="1.0" encoding="utf-8"?>
<!-- Generator: Adobe Illustrator 21.0.2, SVG Export Plug-In . SVG Version: 6.00 Build 0)  -->
<svg version="1.1" id="Layer_1" xmlns="http://www.w3.org/2000/svg" xmlns:xlink="http://www.w3.org/1999/xlink" x="0px" y="0px"
	 viewBox="0 0 32 26" style="enable-background:new 0 0 32 26;" xml:space="preserve">
<style type="text/css">
	.st0{fill:#FF4A77;}
	.st1{fill:#FEEF70;}
	.st2{fill:#81DDB8;}
	.st3{fill:#5BA1FF;}
</style>
<g>
	<rect x="2" y="4" class="st0" width="4" height="4"/>
</g>
<g>
	<rect x="2" y="8" class="st1" width="4" height="4"/>
</g>
<g>
	<rect x="2" y="12" class="st2" width="4" height="4"/>
</g>
<g>
	<rect x="2" y="16" class="st3" width="4" height="4"/>
</g>
<g>
	<path d="M15,6c-3.3,0-6,2.7-6,6s2.7,6,6,6s6-2.7,6-6S18.3,6,15,6z M15,16c-2.2,0-4-1.8-4-4c0-2.2,1.8-4,4-4s4,1.8,4,4
		C19,14.2,17.2,16,15,16z"/>
	<path d="M2,4h22v9h2V4c0-1.1-0.9-2-2-2H12V1H6v1H2C0.9,2,0,2.9,0,4v16c0,1.1,0.9,2,2,2h15v-2H2V4z"/>
	<polygon points="26,20 26,16 24,16 24,20 20,20 20,22 24,22 24,26 26,26 26,22 30,22 30,20 	"/>
</g>
</svg>
